<svg width="72" height="72" viewBox="0 0 72 72" fill="none" xmlns="http://www.w3.org/2000/svg">
<path d="M16.11 37.461C16.11 37.461 11 32.654 12.044 26.39C13.088 20.126 25.619 27.434 26.663 32.655C26.663 32.655 29.796 27.434 35.017 26.39C35.017 26.39 33.972 21.169 35.017 18.036C35.017 18.036 46.503 13.859 50.68 24.301C50.68 24.301 62.166 26.39 63.21 35.787L60.077 37.876L62.818 40.226C62.818 40.226 62.692 47.206 50.943 50.373C50.943 50.373 48.591 57.716 40.238 55.627L41.282 50.407C41.282 50.407 35.017 51.45 26.663 42.053C26.663 42.053 23.53 51.45 11 49.362C11 49.362 10.778 41.225 16.11 37.462V37.461Z" fill="#92D3F5"/>
<path d="M41.78 30.918C41.78 30.918 33.914 35.262 40.915 41.966Z" fill="#61B2E4"/>
<path d="M16.11 37.461C16.11 37.461 11 32.654 12.044 26.39C13.088 20.126 25.619 27.434 26.663 32.655C26.663 32.655 29.796 27.434 35.017 26.39C35.017 26.39 33.972 21.169 35.017 18.036C35.017 18.036 46.503 13.859 50.68 24.301C50.68 24.301 62.166 26.39 63.21 35.787L60.077 37.876L62.818 40.226C62.818 40.226 62.692 47.206 50.943 50.373C50.943 50.373 48.591 57.716 40.238 55.627L41.282 50.407C41.282 50.407 35.017 51.45 26.663 42.053C26.663 42.053 23.53 51.45 11 49.362C11 49.362 10.778 41.225 16.11 37.462V37.461Z" stroke="black" stroke-width="2" stroke-miterlimit="10" stroke-linecap="round" stroke-linejoin="round"/>
<path d="M41 31C41 31 35 35 40 42" stroke="black" stroke-width="2" stroke-miterlimit="10" stroke-linecap="round" stroke-linejoin="round"/>
</svg>
