<svg width="72" height="72" viewBox="0 0 72 72" fill="none" xmlns="http://www.w3.org/2000/svg">
<path d="M55.89 37.461C55.89 37.461 61 32.654 59.956 26.39C58.912 20.126 46.381 27.434 45.337 32.655C45.337 32.655 42.204 27.434 36.983 26.39C36.983 26.39 38.028 21.169 36.983 18.036C36.983 18.036 25.497 13.859 21.32 24.301C21.32 24.301 9.834 26.39 8.79 35.787L11.923 37.876L9.182 40.226C9.182 40.226 9.308 47.206 21.057 50.373C21.057 50.373 23.409 57.716 31.762 55.627L30.718 50.407C30.718 50.407 36.983 51.45 45.337 42.053C45.337 42.053 48.47 51.45 61 49.362C61 49.362 61.222 41.225 55.89 37.462V37.461Z" fill="#92D3F5"/>
<path d="M30.22 30.918C30.22 30.918 38.086 35.262 31.085 41.966Z" fill="#61B2E4"/>
<path d="M55.89 37.461C55.89 37.461 61 32.654 59.956 26.39C58.912 20.126 46.381 27.434 45.337 32.655C45.337 32.655 42.204 27.434 36.983 26.39C36.983 26.39 38.028 21.169 36.983 18.036C36.983 18.036 25.497 13.859 21.32 24.301C21.32 24.301 9.834 26.39 8.79 35.787L11.923 37.876L9.182 40.226C9.182 40.226 9.308 47.206 21.057 50.373C21.057 50.373 23.409 57.716 31.762 55.627L30.718 50.407C30.718 50.407 36.983 51.45 45.337 42.053C45.337 42.053 48.47 51.45 61 49.362C61 49.362 61.222 41.225 55.89 37.462V37.461Z" stroke="black" stroke-width="2" stroke-miterlimit="10" stroke-linecap="round" stroke-linejoin="round"/>
<path d="M31 31C31 31 37 35 32 42" stroke="black" stroke-width="2" stroke-miterlimit="10" stroke-linecap="round" stroke-linejoin="round"/>
</svg>
