<svg width="62" height="62" viewBox="0 0 62 62" fill="none" xmlns="http://www.w3.org/2000/svg">
<rect width="62" height="62" rx="31" fill="white"/>
<path fill-rule="evenodd" clip-rule="evenodd" d="M11.5996 21.336C11.5998 20.2665 12.3416 18.9536 13.2595 18.4014L29.3061 8.7483C30.2228 8.19683 31.7074 8.19683 32.6258 8.75023L48.678 18.4218C49.5949 18.9739 50.3377 20.2873 50.3375 21.3614L50.3307 40.6403C50.3304 41.7115 49.5874 43.0295 48.6722 43.5838L32.5909 53.321C31.6752 53.8756 30.1925 53.8753 29.2754 53.3186L13.2506 43.5862C12.3351 43.0304 11.5935 41.7134 11.594 40.6434L11.5996 21.3362V21.336ZM14.9747 19.7681L30.9189 28.6706L46.12 19.8846L30.8932 10.9435L14.9744 19.7681H14.9747ZM13.9464 22.6494C13.9464 23.0437 13.6884 40.053 13.6884 40.053C13.6802 40.5872 14.0437 41.2438 14.5039 41.5216L29.4255 50.5266L29.5629 31.7781C29.5629 31.7781 13.9466 22.2549 13.9466 22.6494H13.9464ZM32.3785 50.4859L47.1307 41.123C47.6954 40.7645 48.1534 39.9326 48.1534 39.2632V22.5537L32.3785 31.6389V50.4859Z" fill="#030000"/>
<path fill-rule="evenodd" clip-rule="evenodd" d="M18.8325 32.0383C17.6744 32.7072 16.1389 32.2163 15.4031 30.9421C14.6676 29.668 15.0103 28.0928 16.1684 27.4241C17.3268 26.7552 18.8623 27.2461 19.5978 28.5202C20.3336 29.7944 19.9909 31.3696 18.8325 32.0383ZM26.5825 37.1242C25.4244 37.7931 23.8889 37.3022 23.1531 36.0281C22.4176 34.7539 22.7603 33.1787 23.9184 32.51C25.0768 31.8411 26.6123 32.332 27.3478 33.6062C28.0836 34.8803 27.7409 36.4555 26.5825 37.1242ZM18.8325 40.9992C17.6744 41.6681 16.1389 41.1772 15.4031 39.9031C14.6676 38.6289 15.0103 37.0537 16.1684 36.385C17.3268 35.7161 18.8623 36.207 19.5978 37.4812C20.3336 38.7553 19.9909 40.3305 18.8325 40.9992ZM26.5825 46.0851C25.4244 46.7541 23.8889 46.2631 23.1531 44.989C22.4176 43.7148 22.7603 42.1397 23.9184 41.471C25.0768 40.8021 26.6123 41.293 27.3478 42.5671C28.0836 43.8413 27.7409 45.4165 26.5825 46.0851ZM45.5308 27.1819C44.3724 26.513 42.8371 27.0039 42.1014 28.2781C41.3659 29.5522 41.7083 31.1274 42.8667 31.7961C44.0251 32.465 45.5605 31.9741 46.2961 30.6999C47.0318 29.4258 46.6891 27.8506 45.5308 27.1819V27.1819ZM41.5981 34.2054C40.44 33.5364 38.9045 34.0273 38.1687 35.3015C37.4332 36.5756 37.7759 38.1508 38.9341 38.8195C40.0924 39.4884 41.6279 38.9975 42.3634 37.7234C43.0992 36.4492 42.7565 34.874 41.5981 34.2054ZM37.4809 40.9866C36.3228 40.3177 34.7873 40.8086 34.0516 42.0827C33.316 43.3569 33.6587 44.9321 34.8169 45.6008C35.9753 46.2697 37.5107 45.7788 38.2462 44.5046C38.982 43.2305 38.6393 41.6553 37.4809 40.9866ZM31.1211 16.7109C29.583 16.7109 28.3359 17.9037 28.3359 19.375C28.3359 20.8463 29.583 22.0391 31.1211 22.0391C32.6592 22.0391 33.9062 20.8463 33.9062 19.375C33.9062 17.9037 32.6592 16.7109 31.1211 16.7109Z" fill="#030000"/>
</svg>
